<svg xmlns="http://www.w3.org/2000/svg" viewBox="0 0 32 32">
  <rect width="32" height="32" rx="7" fill="#0b0b16"/>
  <rect x="14" y="14" width="2" height="2" fill="#ffffff"/>
  <rect x="16" y="14" width="2" height="2" fill="#ffffff"/>
  <rect x="14" y="16" width="2" height="2" fill="#ffffff"/>
  <rect x="16" y="16" width="2" height="2" fill="#ffffff"/>
  <rect x="16" y="12" width="2" height="2" fill="#d3ddff"/>
  <rect x="12" y="14" width="2" height="2" fill="#d3ddff"/>
  <rect x="18" y="16" width="2" height="2" fill="#d3ddff"/>
  <rect x="14" y="18" width="2" height="2" fill="#d3ddff"/>
  <rect x="12" y="12" width="2" height="2" fill="#6ea8ff"/>
  <rect x="18" y="18" width="2" height="2" fill="#6ea8ff"/>
  <rect x="10" y="14" width="2" height="2" fill="#6ea8ff"/>
  <rect x="20" y="16" width="2" height="2" fill="#6ea8ff"/>
  <rect x="10" y="10" width="2" height="2" fill="#4f8ae8"/>
  <rect x="20" y="20" width="2" height="2" fill="#4f8ae8"/>
  <rect x="8" y="12" width="2" height="2" fill="#4f8ae8"/>
  <rect x="22" y="18" width="2" height="2" fill="#4f8ae8"/>
  <rect x="8" y="8" width="2" height="2" fill="#9b7fe0"/>
  <rect x="22" y="22" width="2" height="2" fill="#9b7fe0"/>
  <rect x="12" y="10" width="2" height="2" fill="#9b7fe0"/>
  <rect x="18" y="20" width="2" height="2" fill="#9b7fe0"/>
  <rect x="6" y="6" width="2" height="2" fill="#7d5cc0"/>
  <rect x="24" y="24" width="2" height="2" fill="#7d5cc0"/>
  <rect x="10" y="18" width="2" height="2" fill="#b673d6"/>
  <rect x="20" y="12" width="2" height="2" fill="#b673d6"/>
</svg>
